<?xml version="1.0" encoding="UTF-8"?> <svg xmlns="http://www.w3.org/2000/svg" xmlns:xlink="http://www.w3.org/1999/xlink" id="Layer_1" version="1.1" viewBox="0 0 1000 206"><defs><style> .st0 { fill: none; } .st1 { fill: #26303A; } .st2 { clip-path: url(#clippath); } </style><clipPath id="clippath"><rect class="st0" width="1000" height="206"></rect></clipPath></defs><g class="st2"><g><path class="st1" d="M0,205.8h53.7c8.4,0,16.2-6,21.2-16.2L168.2,0h-53.7c-8.4,0-16.2,6-21.2,16.2L0,205.8Z"></path><path class="st1" d="M177.6,92.5h-54.9l56.7,99.5c5,8.8,12.3,13.9,20,13.9h54.9l-56.7-99.5c-5-8.8-12.3-13.9-20-13.9Z"></path><path class="st1" d="M1000,54.5c0-.9,0-1.8,0-2.7-1.1-30.4-20.8-49.8-50.8-49.8h-36v105h36c29.5,0,49.6-19.9,50.8-49.9,0-.9,0-1.8,0-2.7ZM933.1,21.5h15.9c18.9,0,30.7,12.7,30.7,33.1s-11.8,33.2-30.7,33.2h-15.9V21.5Z"></path><path class="st1" d="M829,107.1h70.6v-19.4h-50.6v-23.6h48.1v-19.4h-48.1v-23.3h50.6V2.1h-70.6v105Z"></path><path class="st1" d="M771.2,20.1c10.8,0,19.5,5.5,23.8,15.2l2.4,5.3,18.2-8.1-2.2-5.3c-5.2-12.8-20.6-26.6-42.4-26.6s-27,5.5-36.3,15.5c-9.2,9.9-14.2,23.5-14.2,38.5,0,31.3,21.3,54.1,50.5,54.1s37.2-13.8,42.4-26.6l2.2-5.3-18.2-8.1-2.4,5.3c-4.4,9.7-12.9,15-23.8,15-18.3,0-30.6-13.8-30.6-34.5s12.3-34.5,30.6-34.5h0Z"></path><path class="st1" d="M684.4,66.3L639.7,2.1h-15.9v105h20V42.8l44.7,64.3h15.9V2.1h-20v64.2Z"></path><path class="st1" d="M561.6,2.1l-38.6,105h21.3l8.6-23.8h34l8.5,23.8h21.4L578.3,2.1h-16.7ZM559.8,64l10.1-28,10.1,28h-20.1Z"></path><path class="st1" d="M513.8,2.1l-25.8,71.2L462,2.1h-21.3l39,105h16.5L535.2,2.1h-21.4Z"></path><path class="st1" d="M391,2.1h-36.1v105h36.1c30.4,0,50.8-21.1,50.8-52.6S421.9,2.1,391,2.1ZM375,87.7V21.5h15.9c18.9,0,30.7,12.7,30.7,33.1s-11.8,33.2-30.7,33.2h-15.9Z"></path><path class="st1" d="M292.9,2.1l-38.6,105h21.3l8.6-23.8h34l8.5,23.8h21.4L309.5,2.1h-16.7ZM291.1,64l10.1-28,10.1,28h-20.1Z"></path><path class="st1" d="M958.4,204.6v-65.9h41.6v5.3h-35.8v24.9h34.1v5.3h-34.1v25.1h35.8v5.3h-41.6Z"></path><path class="st1" d="M906,204.6v-65.9h5.7v60.6h29.6v5.3h-35.4Z"></path><path class="st1" d="M860.9,205.6c-18.2,0-31.6-14.3-31.6-34.1s13.4-34,31.6-34,22.9,8.3,26.1,16.2l-5.4,2.4c-3.6-8-11-13.2-20.7-13.2-15.1,0-25.8,11.6-25.8,28.6s10.7,28.6,25.8,28.6,17.1-5.1,20.7-13.1l5.4,2.4c-3.2,7.9-12.9,16.2-26.1,16.2Z"></path><path class="st1" d="M789.9,204.6v-30.1l-23.3-35.9h6.5l19.6,30,19.6-30h6.5l-23.2,35.9v30.1h-5.8Z"></path><path class="st1" d="M729.2,205.6c-18.2,0-31.6-14.3-31.6-34.1s13.4-34,31.6-34,22.9,8.3,26.1,16.2l-5.4,2.4c-3.6-8-11-13.2-20.7-13.2-15.1,0-25.8,11.6-25.8,28.6s10.7,28.6,25.8,28.6,17.1-5.1,20.7-13.1l5.4,2.4c-3.2,7.9-12.9,16.2-26.1,16.2Z"></path><path class="st1" d="M655.9,204.6l-24.5-65.9h6.1l21.3,58.5,21.2-58.5h6.2l-24.5,65.9h-5.9Z"></path><path class="st1" d="M578.7,204.6v-65.9h41.6v5.3h-35.8v24.9h34.1v5.3h-34.1v25.1h35.8v5.3h-41.6Z"></path><path class="st1" d="M516.9,204.6v-65.9h22.1c12.6,0,21.2,8.1,21.2,19.9s-5.5,16.6-14.1,18.9l15.6,27.1h-6.8l-14.8-26.1h-17.4v26.1h-5.8ZM522.7,173.2h16.5c9,0,15.3-5.8,15.3-14.7s-6.2-14.5-15.3-14.5h-16.5v29.2Z"></path></g></g></svg> 