<svg xmlns="http://www.w3.org/2000/svg" id="Layer_1" viewBox="0 0 312.85 91.48"><defs><style>.cls-1{fill:#898a8d;}.cls-1,.cls-2,.cls-3,.cls-4{stroke-width:0px;}.cls-2{fill:#ea0029;}.cls-3{fill:#002e6d;}.cls-4{fill:#0067b1;}</style></defs><path class="cls-3" d="m50.24,17.37c-1.41,1.94-2.49,4.02-3.25,6.19.78.64,1.45,1.41,1.96,2.28.18.31.34.64.48.97.5-2.36,1.4-4.66,2.71-6.8-.29-.47-.59-.93-.92-1.39-.31-.43-.64-.85-.98-1.25Z"></path><path class="cls-3" d="m91.02,24.69c.5,1.46.85,2.95,1.03,4.46-.06-1.94-.36-3.87-.91-5.73-1.28-4.37-3.87-8.4-7.72-11.42-1.12-.88-2.29-1.63-3.51-2.27-8.86-4.64-19.88-2.92-26.88,4.44-.31.3-.61.61-.9.93.67.72,1.32,1.48,1.91,2.3,2.1-2.5,4.65-4.4,7.45-5.69l.1-.04c.23-.11.47-.21.7-.3.11-.05.23-.09.34-.14.2-.08.39-.15.59-.22.1-.04.21-.07.31-.11.26-.09.51-.17.77-.25h.02c6.48-1.94,13.78-.81,19.5,3.7,3.51,2.76,5.93,6.39,7.19,10.35h.01Z"></path><path class="cls-3" d="m81.04,8.08c6.51,3.48,11.19,10.19,12.14,18.13.11.95.19,1.91.19,2.89.02,3.46-.67,6.74-1.92,9.7-1.27,3.01-3.12,5.7-5.4,7.89-2.53,2.64-5.61,4.49-8.92,5.54.08.52.14,1.05.18,1.59.04.52.06,1.05.06,1.59v.04l.02.2c10.51-2.56,18.55-11.83,19.15-22.98.6-11.07-5.99-20.67-15.5-24.59Z"></path><path class="cls-2" d="m17.58,45.98c-2.19-2.29-3.92-5.05-5.06-8.11-1.12-3.01-1.68-6.33-1.51-9.78.05-.98.16-1.94.31-2.88,1.29-7.9,6.25-14.4,12.89-17.61C14.54,11.13,7.55,20.44,7.69,31.53c.14,11.68,8.49,21.66,19.62,24.14-.02-.09-.03-.17-.03-.26,0-.53.02-1.06.06-1.58.04-.52.1-1.02.17-1.52-3.74-1.1-7.2-3.23-9.93-6.32h0Z"></path><path class="cls-2" d="m54.07,17.44l-.03-.04c-.59-.82-1.24-1.58-1.91-2.3-.07-.07-.13-.15-.2-.23-6.68-7.65-17.63-9.83-26.67-5.56-1.24.59-2.45,1.29-3.6,2.12-3.97,2.86-6.73,6.78-8.19,11.09-.62,1.84-1.01,3.75-1.15,5.69.24-1.5.65-2.98,1.22-4.41,1.43-3.9,4-7.43,7.62-10.04,5.91-4.26,13.24-5.09,19.64-2.88h.02c.25.1.51.19.76.29.1.04.21.08.31.12.2.08.39.16.58.25.11.05.22.1.34.15.23.11.46.22.69.33l.09.05c2.49,1.28,4.76,3.06,6.66,5.31.34.4.67.82.98,1.25.33.45.63.92.92,1.39,1.43,2.35,2.37,4.88,2.82,7.46.19-.57.43-1.11.72-1.62.44-.77,1.02-1.44,1.67-2.04-.75-2.23-1.84-4.38-3.29-6.38Z"></path><path class="cls-1" d="m41.48,78.86c-.78-.56-1.53-1.15-2.26-1.81-2.56-2.32-4.51-5.05-5.85-7.98-1.36-2.97-2.09-6.15-2.16-9.31-.04-.67-.05-1.33-.03-1.99-.73-.16-1.4-.34-1.97-.56-.73-.28-1.31-.61-1.63-1.01-.95,7.4,1.36,15.14,6.88,20.78,7.76,7.93,19.28,9.56,28.6,5.2-6.96,2.44-15.07,1.36-21.57-3.31h-.01Z"></path><path class="cls-1" d="m77.5,57.42c-.01-.59-.05-1.18-.11-1.77l-.03-.2c-.03.74-.78,1.32-1.93,1.75-.26.1-.55.19-.85.28.16,2.71-.19,5.35-.99,7.82l-.03.1c-.08.24-.16.48-.25.72-.04.12-.09.23-.13.34-.08.2-.15.39-.24.59-.04.1-.09.2-.13.31-.11.25-.22.49-.34.73v.02c-2.97,6.09-8.73,10.69-15.92,11.87-4.41.72-8.72.05-12.49-1.7-1.41-.61-2.75-1.37-3.98-2.25,1.47,1.27,3.1,2.35,4.84,3.21,4.08,2.01,8.8,2.82,13.64,2.03,1.4-.23,2.75-.59,4.04-1.05,9.41-3.39,15.59-12.68,14.9-22.81h0Z"></path><path class="cls-4" d="m60.83,35.76c0,.37-.03.74-.08,1.1.72.25,1.49.39,2.29.39,3.93,0,7.13-3.2,7.13-7.13s-3.2-7.13-7.13-7.13c-3.27,0-6.02,2.21-6.86,5.21,2.75,1.41,4.65,4.27,4.65,7.58v-.02Z"></path><path class="cls-4" d="m63.05,39.04c-1.07,0-2.11.17-3.1.48-.95,1.92-2.6,3.42-4.61,4.19,5.45,1.45,9.75,6.75,10.96,13.49,5.87-.27,9.31-1.24,9.69-1.83-.02-9-5.82-16.32-12.94-16.32h0Z"></path><path class="cls-4" d="m41.59,37.25c.8,0,1.57-.14,2.29-.39-.05-.36-.08-.73-.08-1.1,0-3.3,1.89-6.16,4.65-7.58-.84-3-3.6-5.21-6.86-5.21-3.93,0-7.13,3.2-7.13,7.13s3.2,7.13,7.13,7.13v.02Z"></path><path class="cls-4" d="m49.3,43.71c-2.01-.77-3.66-2.27-4.61-4.19-.99-.31-2.03-.48-3.1-.48-7.12,0-12.92,7.32-12.94,16.32.39.59,3.82,1.56,9.69,1.83,1.21-6.73,5.51-12.03,10.96-13.49h0Z"></path><path class="cls-4" d="m45.19,35.76c0,3.93,3.2,7.13,7.13,7.13s7.13-3.2,7.13-7.13-3.2-7.13-7.13-7.13-7.13,3.2-7.13,7.13Z"></path><path class="cls-4" d="m52.32,44.69c-7.12,0-12.92,7.32-12.94,16.32.46.7,5.09,1.91,12.94,1.91s12.48-1.21,12.94-1.91c-.02-9-5.82-16.32-12.94-16.32Z"></path><path class="cls-4" d="m126.39,30.58c2.21,0,4.17.59,6.12,1.62l.81-1.14h1.73l1.51,8.52-2.25.37c-1.37-3.58-3.8-6.82-7.93-6.82-6.42,0-9,8.45-9,12.76,0,5.38,2.66,8.19,6.79,8.19s7.08-2.4,9.74-5.57l2.03,1.51c-2.99,4.02-7.05,6.64-12.17,6.64-7.3,0-11.69-4.87-11.69-10.92,0-6.68,5.5-15.16,14.31-15.16Z"></path><path class="cls-4" d="m156.04,50.2c-.11.63-.11,1.11-.11,1.25,0,1.14.52,2.07,1.77,2.07,1.03,0,1.62-.37,2.43-.92l1.22,1.51c-1.81,1.55-3.17,2.43-5.57,2.43s-3.54-1.14-4.35-3.21c-1.48,1.95-3.91,3.21-6.38,3.21-5.31,0-7.41-3.84-7.41-7.27,0-6.23,4.54-11.54,10.29-11.54,2.14,0,3.98.41,5.61,1.84l.41-1.48h4.24l-2.14,12.1h0Zm-9.59,3.76c2.88,0,4.13-2.62,5.02-5.02.63-1.73,1.51-6.38,1.51-6.68,0-.15-1.58-1.95-4.02-1.95-3.65,0-6.45,4.46-6.45,9,0,2.91,1.4,4.65,3.95,4.65h0Z"></path><path class="cls-4" d="m164.67,44.67c.18-.96.41-1.88.41-2.25,0-.85-.92-1.14-2.62-1.33l.33-1.92c1.92-.29,3.87-.7,5.68-1.44h1.44l-.37,2.58h.08c1.14-1.33,2.84-2.58,4.72-2.58,1.47,0,2.84.66,2.84,2.36s-1.07,2.58-2.77,2.58c-1.25,0-2.43-1.03-3.1-1.03s-1.81.37-2.36,3.8l-1.77,10.73h-4.65l2.14-11.51h0Z"></path><path class="cls-4" d="m189.19,37.74c4.42,0,6.6,1.66,6.6,4.24s-2.4,4.2-4.83,5.02c-2.8.96-5.79,1-8.74,1.07v1.14c0,1.55.77,4.54,4.65,4.54,2.4,0,4.76-1.66,6.49-2.91l1.33,1.81c-2.73,2.29-5.72,3.91-9.37,3.91-4.24,0-8.19-2.29-8.19-7.23,0-5.35,4.54-11.58,12.06-11.58h0Zm-.52,2.14c-2.95,0-5.5,3.65-6.05,6.27,3.69-.3,8.81-.7,8.81-4.13,0-1.92-1.99-2.14-2.77-2.14h.01Z"></path><path class="cls-4" d="m198.04,38.11h2.47c.59-4.65,2.76-8.08,7.63-8.08,2.65,0,4.2,1.14,4.2,2.66,0,.85-.52,1.84-1.92,1.84-2.14,0-2.03-2.14-3.28-2.14-1.92,0-2.21,4.28-2.29,5.72h3.36l-.26,2.14h-3.43l-1.4,10.51c-1.11,8.41-5.9,12.91-11.51,12.91-2.8,0-4.43-1.07-4.43-2.88,0-.96.66-1.92,1.96-1.92,2.14,0,2.84,2.21,4.61,2.21,3.1,0,4.43-4.35,5.05-9.52l1.36-11.32h-2.36l.22-2.14h.02Z"></path><path class="cls-4" d="m209.14,38.84c2.14-.11,4.2-.55,6.27-1.11h1.48l-2.51,13.2c-.08.29-.08.55-.08.85,0,1.18.92,1.73,1.85,1.73.7,0,1.44-.41,2.1-.81l1.14,1.7c-1.73,1.36-3.36,2.14-5.61,2.14-2.55,0-4.13-1.96-4.13-4.24,0-.3.04-.59.07-.89l1.59-8.48c.04-.22.07-.44.07-.59,0-1.33-1.18-1.4-2.58-1.59l.33-1.92h0Zm3.91-5.68c0-1.59,1.33-2.8,2.91-2.8,1.37,0,2.18.81,2.18,2.18,0,1.11-.85,2.77-2.95,2.77-1.7,0-2.14-1.36-2.14-2.14h0Z"></path><path class="cls-4" d="m231.97,37.74c3.25,0,6.05,1.81,6.05,4.09,0,1.33-.63,2.66-2.25,2.66-1.88,0-2.14-1.11-2.4-2.32-.18-.96-.37-2.07-2.07-2.07-4.09,0-6.23,5.24-6.23,8.56,0,2.62,1.29,4.87,4.13,4.87,2.51,0,4.9-1.55,6.82-3.02l1.62,1.55c-2.69,2.69-5.57,4.5-9.48,4.5-4.24,0-8.19-2.29-8.19-7.23,0-5.35,4.54-11.58,11.99-11.58h0Z"></path><path class="cls-4" d="m240.45,38.84c2.14-.11,4.2-.55,6.27-1.11h1.48l-2.51,13.2c-.07.29-.07.55-.07.85,0,1.18.92,1.73,1.84,1.73.7,0,1.44-.41,2.1-.81l1.14,1.7c-1.73,1.36-3.36,2.14-5.61,2.14-2.55,0-4.13-1.96-4.13-4.24,0-.3.04-.59.07-.89l1.59-8.48c.04-.22.07-.44.07-.59,0-1.33-1.18-1.4-2.58-1.59l.33-1.92h0Zm3.91-5.68c0-1.59,1.33-2.8,2.91-2.8,1.36,0,2.18.81,2.18,2.18,0,1.11-.85,2.77-2.95,2.77-1.7,0-2.14-1.36-2.14-2.14h0Z"></path><path class="cls-4" d="m263.35,37.74c4.43,0,6.6,1.66,6.6,4.24s-2.4,4.2-4.83,5.02c-2.8.96-5.79,1-8.74,1.07v1.14c0,1.55.77,4.54,4.65,4.54,2.4,0,4.76-1.66,6.49-2.91l1.33,1.81c-2.73,2.29-5.72,3.91-9.37,3.91-4.24,0-8.19-2.29-8.19-7.23,0-5.35,4.54-11.58,12.06-11.58h0Zm-.52,2.14c-2.95,0-5.5,3.65-6.05,6.27,3.69-.3,8.81-.7,8.81-4.13,0-1.92-1.99-2.14-2.77-2.14h0Z"></path><path class="cls-4" d="m274.53,43.38c.07-.33.11-.63.11-.96,0-.81-.92-1.25-2.55-1.33l.37-1.92c1.96-.22,3.91-.7,5.75-1.44h1.48l-.33,2.55c1.99-1.59,3.91-2.55,6.53-2.55,2.8,0,4.98,1.36,4.98,4.54,0,.29-.04.7-.15,1.18l-1.48,7.27c-.11.55-.22,1.03-.22,1.51,0,.92.77,1.29,1.44,1.29,1.33,0,2.06-.37,2.51-.78l1.18,1.66c-1.58,1.51-3.54,2.14-5.27,2.14-2.84,0-4.5-1.66-4.5-3.8,0-.74.22-1.55.37-2.18l1.33-6.6c.07-.33.15-.77.15-.96,0-.48-.48-2.03-2.47-2.03-1.51,0-4.65,1.73-4.76,2.32l-2.4,12.87h-4.54l2.47-12.8v.02Z"></path><path class="cls-4" d="m295.96,38.22c3.47-.59,4.72-2.88,5.97-5.94h2.07l-1.03,5.83h4.72l-.33,2.14h-4.76l-1.92,11.29c-.04.26-.08.52-.08.7,0,1,.85,1.51,1.73,1.51,1.29,0,2.55-.74,3.65-1.36l1.18,1.66c-1.29,1.25-4.35,2.51-6.75,2.51s-4.46-1.22-4.46-3.76c0-.33.04-.63.15-1.18l2.14-11.43h-2.62l.33-1.95v-.02Z"></path></svg>